Coordinates
version=1
nRows=24
nColumns=24
inDegrees=yes

Units are S.I. units (second, meters, Newtons, ...)
Angles are in degrees.

endheader
time	pelvis_tilt	pelvis_list	pelvis_rotation	pelvis_tx	pelvis_ty	pelvis_tz	hip_flexion_r	hip_adduction_r	hip_rotation_r	knee_angle_r	ankle_angle_r	subtalar_angle_r	mtp_angle_r	hip_flexion_l	hip_adduction_l	hip_rotation_l	knee_angle_l	ankle_angle_l	subtalar_angle_l	mtp_angle_l	lumbar_extension	lumbar_bending	lumbar_rotation
      0.72416667	     -0.07436956	     -2.48880259	      2.44287861	     -0.40131276	      0.99181381	      0.30821924	     12.12328822	      6.46484672	     -3.42587200	    -19.39278397	      8.42163367	     -6.13275713	      2.35354145	     21.13107967	     -2.60408051	     -0.06843728	    -71.99268642	     -6.90368002	    -10.12304884	      0.45811209	     -1.70864189	      5.95364813	      2.63122243
      0.72833333	     -0.06752569	     -2.44708986	      2.40337234	     -0.39609058	      0.99267504	      0.30844465	     11.55195636	      6.44953674	     -3.43295616	    -18.95823885	      8.48868344	     -6.02865130	      2.35446925	     21.73450032	     -2.51993834	     -0.04799646	    -71.79500443	     -6.36068790	    -10.39579223	      0.40979135	     -1.73627482	      5.90516175	      2.68663522
      0.73250000	      0.00762449	     -2.37493097	      2.36228592	     -0.39082023	      0.99365244	      0.30864743	     10.88785903	      6.39843551	     -3.45209174	    -18.49040114	      8.52405527	     -5.80231958	      2.35596157	     22.22071588	     -2.40327096	     -0.03496364	    -71.49428237	     -5.82031488	    -10.57545845	      0.30072284	     -1.85020348	      5.82713725	      2.82896590
      0.73666667	      0.05578118	     -2.28199256	      2.29726026	     -0.38556254	      0.99456503	      0.30885351	     10.27151423	      6.32153907	     -3.46526711	    -18.06532285	      8.59397503	     -5.57133622	      2.35989935	     22.70931171	     -2.26760678	     -0.05189637	    -71.12200577	     -5.26216351	    -10.76799987	      0.18176321	     -1.93134164	      5.72394374	      2.97403162
      0.74083333	      0.06622433	     -2.18378998	      2.21571566	     -0.38034009	      0.99536858	      0.30907310	      9.71419998	      6.23937316	     -3.45109167	    -17.67669882	      8.67522761	     -5.41129848	      2.36393204	     23.22305243	     -2.13067955	     -0.08808364	    -70.69453832	     -4.68592545	    -10.98098896	      0.12814044	     -1.97534417	      5.61417319	      3.06308790
      0.74500000	      0.14202580	     -2.08800163	      2.14166163	     -0.37506193	      0.99625688	      0.30928195	      9.06083170	      6.15760736	     -3.46273157	    -17.23579927	      8.74088041	     -5.12342923	      2.37166737	     23.63246970	     -2.00396011	     -0.12291963	    -70.18217149	     -4.14528337	    -11.08515203	      0.01789840	     -2.08487580	      5.50656197	      3.26258475
      0.74916667	      0.11621566	     -1.99746710	      2.04741654	     -0.36987001	      0.99691722	      0.30950076	      8.55131752	      6.08206350	     -3.41962067	    -16.85832450	      8.82899582	     -4.96582368	      2.37706321	     24.14981979	     -1.87927631	     -0.16842849	    -69.63762509	     -3.57143988	    -11.25959013	     -0.02666261	     -2.09480877	      5.40227456	      3.35155948
      0.75333333	      0.19449296	     -1.89518037	      1.94462478	     -0.36458689	      0.99772487	      0.30973047	      7.90436682	      5.99070216	     -3.42330949	    -16.43535402	      8.89897268	     -4.65530151	      2.38808431	     24.50641517	     -1.76298853	     -0.24126767	    -68.99750939	     -3.01109438	    -11.31053269	     -0.14716909	     -2.20459281	      5.28191584	      3.59323278
      0.75750000	      0.22129982	     -1.78549180	      1.82930354	     -0.35934850	      0.99840658	      0.30995260	      7.33302299	      5.88841976	     -3.40132263	    -16.04978617	      8.98363165	     -4.39337314	      2.40131065	     24.90334794	     -1.63623589	     -0.32510359	    -68.30351317	     -2.44974334	    -11.40193061	     -0.27221815	     -2.26556737	      5.15702142	      3.77122025
      0.76166667	      0.23455087	     -1.68832956	      1.69058148	     -0.35412422	      0.99900897	      0.31019264	      6.78734968	      5.80168241	     -3.34402100	    -15.68437222	      9.05866310	     -4.19876484	      2.41107105	     25.29347306	     -1.53340174	     -0.42993454	    -67.55688848	     -1.87121982	    -11.49693229	     -0.34702000	     -2.30374758	      5.05943124	      3.89522979
      0.76583333	      0.24633367	     -1.59360488	      1.55954298	     -0.34890241	      0.99956250	      0.31042720	      6.23702544	      5.71518474	     -3.28908333	    -15.30175479	      9.13589457	     -3.97607395	      2.42210586	     25.66775839	     -1.43361590	     -0.52594587	    -66.75480077	     -1.31523203	    -11.54144116	     -0.42603677	     -2.34933097	      4.95415169	      4.05933849
      0.77000000	      0.27925433	     -1.49974071	      1.42359467	     -0.34366961	      1.00010546	      0.31066150	      5.66255987	      5.62858404	     -3.23511888	    -14.91504409	      9.21332550	     -3.74362885	      2.43432222	     25.99289640	     -1.34012028	     -0.62970243	    -65.89009845	     -0.77620248	    -11.56672353	     -0.51152375	     -2.41904873	      4.85007204	      4.23788814
      0.77416667	      0.27569969	     -1.42171022	      1.28245169	     -0.33845878	      1.00051871	      0.31088686	      5.13752735	      5.55593741	     -3.16704841	    -14.54363585	      9.29154911	     -3.52203772	      2.44665370	     26.34525909	     -1.26435489	     -0.73327755	    -64.98444023	     -0.25090642	    -11.58659722	     -0.59340795	     -2.45067613	      4.76510693	      4.40272096
      0.77833333	      0.32553788	     -1.33736607	      1.16357466	     -0.33321292	      1.00098761	      0.31108863	      4.53678396	      5.47387074	     -3.13870949	    -14.13527040	      9.37329722	     -3.25302724	      2.46603011	     26.61135282	     -1.17586915	     -0.81844862	    -64.00930299	      0.22318006	    -11.56583754	     -0.74120176	     -2.54126135	      4.66755572	      4.63370524
      0.78250000	      0.32953220	     -1.26725417	      1.01691289	     -0.32800122	      1.00130655	      0.31130706	      4.00640055	      5.40550676	     -3.07278378	    -13.76367832	      9.44809108	     -3.02246911	      2.48736401	     26.91235250	     -1.11440239	     -0.92880717	    -62.99700363	      0.71081980	    -11.55624541	     -0.90527300	     -2.58180215	      4.59240532	      4.80998361
      0.78666667	      0.32679797	     -1.19557515	      0.86611612	     -0.32277703	      1.00156739	      0.31153435	      3.48452919	      5.33517371	     -3.00243512	    -13.39418693	      9.52576000	     -2.82401367	      2.50513861	     27.19740782	     -1.05756119	     -1.05261295	    -61.93071215	      1.16206951	    -11.55196358	     -1.03673216	     -2.60825531	      4.50288074	      4.94778108
      0.79083333	      0.31678952	     -1.12989133	      0.70325469	     -0.31758128	      1.00177091	      0.31175633	      2.98184121	      5.26969873	     -2.90257247	    -13.04303964	      9.59212190	     -2.64471394	      2.51861781	     27.46709830	     -1.00599973	     -1.17177503	    -60.80874580	      1.59565152	    -11.54360043	     -1.13079131	     -2.63443775	      4.44180585	      5.06284962
      0.79500000	      0.32179339	     -1.08713839	      0.58034577	     -0.31235689	      1.00191724	      0.31191116	      2.45108695	      5.22092866	     -2.88935324	    -12.66391302	      9.66221322	     -2.37575883	      2.55972267	     27.71038881	     -0.95887974	     -1.24810887	    -59.65535083	      2.01828023	    -11.53770849	     -1.48909940	     -2.67591603	      4.40101895	      5.31616053
      0.79916667	      0.30872114	     -1.02349968	      0.41786705	     -0.30714596	      1.00202259	      0.31213394	      1.94684776	      5.15764370	     -2.76941751	    -12.30080460	      9.74233423	     -2.24212072	      2.57216098	     27.93830006	     -0.91651809	     -1.37676152	    -58.42813832	      2.34723109	    -11.47562827	     -1.57937492	     -2.69166026	      4.32686263	      5.36283756
      0.80333333	      0.29487104	     -0.98309237	      0.28207612	     -0.30192826	      1.00205868	      0.31230668	      1.43700960	      5.11547720	     -2.68728319	    -11.91983954	      9.80904754	     -2.09366945	      2.58350894	     28.15425107	     -0.88147376	     -1.46711135	    -57.16712118	      2.68053404	    -11.43138359	     -1.67228109	     -2.71262495	      4.28627017	      5.46989784
      0.80750000	      0.27660419	     -0.94514095	      0.14973518	     -0.29670446	      1.00202121	      0.31247483	      0.93537280	      5.07357150	     -2.61970724	    -11.54600130	      9.87984618	     -1.93924330	      2.59506945	     28.35598297	     -0.85079212	     -1.55879401	    -55.86435327	      2.97469803	    -11.37669622	     -1.77418278	     -2.72969892	      4.24710441	      5.58736024
      0.81166667	      0.25323143	     -0.91578352	      0.02667303	     -0.29148314	      1.00194119	      0.31262004	      0.43874108	      5.04041697	     -2.55903030	    -11.16788618	      9.95579448	     -1.79914177	      2.60555663	     28.54123412	     -0.82102221	     -1.63323339	    -54.51199341	      3.23306109	    -11.32357495	     -1.87320752	     -2.73518666	      4.21678953	      5.69012612
      0.81583333	      0.25418908	     -0.88271615	     -0.08813787	     -0.28624189	      1.00185668	      0.31275032	     -0.08867248	      5.00165380	     -2.51288025	    -10.78233747	     10.02946943	     -1.66359904	      2.61518635	     28.67364654	     -0.78539516	     -1.70702675	    -53.10697402	      3.45755771	    -11.26305085	     -1.97656161	     -2.76689758	      4.17993347	      5.78622273
      0.82000000	      0.22587552	     -0.85765968	     -0.19836604	     -0.28101247	      1.00167239	      0.31286475	     -0.57857481	      4.97111928	     -2.46442583	    -10.40655566	     10.10522780	     -1.54228522	      2.62304635	     28.81932511	     -0.75347742	     -1.76876951	    -51.66382621	      3.65491882	    -11.19111027	     -2.07375206	     -2.77228866	      4.15764107	      5.86474918
